<svg aria-roledescription="er" viewBox="0 0 480 314" style="max-width: 480px; background-color: white;" xmlns:xlink="http://www.w3.org/1999/xlink" xmlns="http://www.w3.org/2000/svg" width="100%" id="mermaid-0"><style>#mermaid-0{font-family:"trebuchet ms",verdana,arial,sans-serif;font-size:16px;fill:#000000;}#mermaid-0 .error-icon{fill:#552222;}#mermaid-0 .error-text{fill:#552222;stroke:#552222;}#mermaid-0 .edge-thickness-normal{stroke-width:2px;}#mermaid-0 .edge-thickness-thick{stroke-width:3.5px;}#mermaid-0 .edge-pattern-solid{stroke-dasharray:0;}#mermaid-0 .edge-pattern-dashed{stroke-dasharray:3;}#mermaid-0 .edge-pattern-dotted{stroke-dasharray:2;}#mermaid-0 .marker{fill:#000000;stroke:#000000;}#mermaid-0 .marker.cross{stroke:#000000;}#mermaid-0 svg{font-family:"trebuchet ms",verdana,arial,sans-serif;font-size:16px;}#mermaid-0 .entityBox{fill:#cde498;stroke:#13540c;}#mermaid-0 .attributeBoxOdd{fill:#ffffff;stroke:#13540c;}#mermaid-0 .attributeBoxEven{fill:#f2f2f2;stroke:#13540c;}#mermaid-0 .relationshipLabelBox{fill:hsl(78.1578947368, 58.4615384615%, 84.5098039216%);opacity:0.7;background-color:hsl(78.1578947368, 58.4615384615%, 84.5098039216%);}#mermaid-0 .relationshipLabelBox rect{opacity:0.5;}#mermaid-0 .relationshipLine{stroke:#000000;}#mermaid-0 .entityTitleText{text-anchor:middle;font-size:18px;fill:#000000;}#mermaid-0 :root{--mermaid-font-family:"trebuchet ms",verdana,arial,sans-serif;}</style><g/><defs><marker orient="auto" markerHeight="18" markerWidth="18" refY="9" refX="0" id="ONLY_ONE_START"><path d="M9,0 L9,18 M15,0 L15,18" fill="none" stroke="gray"/></marker></defs><defs><marker orient="auto" markerHeight="18" markerWidth="18" refY="9" refX="18" id="ONLY_ONE_END"><path d="M3,0 L3,18 M9,0 L9,18" fill="none" stroke="gray"/></marker></defs><defs><marker orient="auto" markerHeight="18" markerWidth="30" refY="9" refX="0" id="ZERO_OR_ONE_START"><circle r="6" cy="9" cx="21" fill="white" stroke="gray"/><path d="M9,0 L9,18" fill="none" stroke="gray"/></marker></defs><defs><marker orient="auto" markerHeight="18" markerWidth="30" refY="9" refX="30" id="ZERO_OR_ONE_END"><circle r="6" cy="9" cx="9" fill="white" stroke="gray"/><path d="M21,0 L21,18" fill="none" stroke="gray"/></marker></defs><defs><marker orient="auto" markerHeight="36" markerWidth="45" refY="18" refX="18" id="ONE_OR_MORE_START"><path d="M0,18 Q 18,0 36,18 Q 18,36 0,18 M42,9 L42,27" fill="none" stroke="gray"/></marker></defs><defs><marker orient="auto" markerHeight="36" markerWidth="45" refY="18" refX="27" id="ONE_OR_MORE_END"><path d="M3,9 L3,27 M9,18 Q27,0 45,18 Q27,36 9,18" fill="none" stroke="gray"/></marker></defs><defs><marker orient="auto" markerHeight="36" markerWidth="57" refY="18" refX="18" id="ZERO_OR_MORE_START"><circle r="6" cy="18" cx="48" fill="white" stroke="gray"/><path d="M0,18 Q18,0 36,18 Q18,36 0,18" fill="none" stroke="gray"/></marker></defs><defs><marker orient="auto" markerHeight="36" markerWidth="57" refY="18" refX="39" id="ZERO_OR_MORE_END"><circle r="6" cy="18" cx="9" fill="white" stroke="gray"/><path d="M21,18 Q39,0 57,18 Q39,36 21,18" fill="none" stroke="gray"/></marker></defs><path style="stroke: gray; fill: none;" marker-start="url(#ZERO_OR_MORE_START)" marker-end="url(#ONLY_ONE_END)" d="M83,95L83,103.33333333333333C83,111.66666666666667,83,128.33333333333334,87.18760469011725,145C91.3752093802345,161.66666666666666,99.75041876046902,178.33333333333334,103.93802345058627,186.66666666666666L108.12562814070353,195" class="er relationshipLine"/><path style="stroke: gray; fill: none;" marker-start="url(#ZERO_OR_MORE_START)" marker-end="url(#ONLY_ONE_END)" d="M368.07142857142856,83L373.9761904761904,93.33333333333333C379.88095238095235,103.66666666666667,391.69047619047615,124.33333333333333,397.5952380952381,145C403.5,165.66666666666666,403.5,186.33333333333334,403.5,196.66666666666666L403.5,207" class="er relationshipLine"/><path style="stroke: gray; fill: none;" marker-start="url(#ZERO_OR_MORE_START)" marker-end="url(#ONLY_ONE_END)" d="M320.27714285714285,83L306.8142857142857,93.33333333333333C293.3514285714286,103.66666666666667,266.42571428571426,124.33333333333333,244.04325915290738,143C221.6608040201005,161.66666666666666,203.821608040201,178.33333333333334,194.90201005025128,186.66666666666666L185.9824120603015,195" class="er relationshipLine"/><g transform="translate(61.5,195 )" id="entity-habits-44950393-6541-4b21-a453-e458330f0bc0"><rect height="99" width="143" y="0" x="0" class="er entityBox"/><text style="dominant-baseline: middle; text-anchor: middle; font-size: 12px;" transform="translate(71.5,13.5)" y="0" x="0" id="text-entity-habits-44950393-6541-4b21-a453-e458330f0bc0" class="er entityLabel">habits</text><rect height="24" width="57" y="27" x="0" class="er attributeBoxOdd"/><text style="dominant-baseline: middle; font-size: 10.2px;" transform="translate(5,39)" y="0" x="0" id="text-entity-habits-44950393-6541-4b21-a453-e458330f0bc0-attr-1-type" class="er entityLabel">String</text><rect height="24" width="63" y="27" x="57" class="er attributeBoxOdd"/><text style="dominant-baseline: middle; font-size: 10.2px;" transform="translate(62,39)" y="0" x="0" id="text-entity-habits-44950393-6541-4b21-a453-e458330f0bc0-attr-1-name" class="er entityLabel">id</text><rect height="24" width="23" y="27" x="120" class="er attributeBoxOdd"/><text style="dominant-baseline: middle; font-size: 10.2px;" transform="translate(125,39)" y="0" x="0" id="text-entity-habits-44950393-6541-4b21-a453-e458330f0bc0-attr-1-key" class="er entityLabel">PK</text><rect height="24" width="57" y="51" x="0" class="er attributeBoxEven"/><text style="dominant-baseline: middle; font-size: 10.2px;" transform="translate(5,63)" y="0" x="0" id="text-entity-habits-44950393-6541-4b21-a453-e458330f0bc0-attr-2-type" class="er entityLabel">String</text><rect height="24" width="63" y="51" x="57" class="er attributeBoxEven"/><text style="dominant-baseline: middle; font-size: 10.2px;" transform="translate(62,63)" y="0" x="0" id="text-entity-habits-44950393-6541-4b21-a453-e458330f0bc0-attr-2-name" class="er entityLabel">title</text><rect height="24" width="23" y="51" x="120" class="er attributeBoxEven"/><text style="dominant-baseline: middle; font-size: 10.2px;" transform="translate(125,63)" y="0" x="0" id="text-entity-habits-44950393-6541-4b21-a453-e458330f0bc0-attr-2-key" class="er entityLabel"/><rect height="24" width="57" y="75" x="0" class="er attributeBoxOdd"/><text style="dominant-baseline: middle; font-size: 10.2px;" transform="translate(5,87)" y="0" x="0" id="text-entity-habits-44950393-6541-4b21-a453-e458330f0bc0-attr-3-type" class="er entityLabel">DateTime</text><rect height="24" width="63" y="75" x="57" class="er attributeBoxOdd"/><text style="dominant-baseline: middle; font-size: 10.2px;" transform="translate(62,87)" y="0" x="0" id="text-entity-habits-44950393-6541-4b21-a453-e458330f0bc0-attr-3-name" class="er entityLabel">created_at</text><rect height="24" width="23" y="75" x="120" class="er attributeBoxOdd"/><text style="dominant-baseline: middle; font-size: 10.2px;" transform="translate(125,87)" y="0" x="0" id="text-entity-habits-44950393-6541-4b21-a453-e458330f0bc0-attr-3-key" class="er entityLabel"/></g><g transform="translate(20,20 )" id="entity-habitweekdays-f4b53567-586f-492e-bfdf-ee5d0b0d4165"><rect height="75" width="126" y="0" x="0" class="er entityBox"/><text style="dominant-baseline: middle; text-anchor: middle; font-size: 12px;" transform="translate(63,13.5)" y="0" x="0" id="text-entity-habitweekdays-f4b53567-586f-492e-bfdf-ee5d0b0d4165" class="er entityLabel">habit_week_days</text><rect height="24" width="41.666666666666664" y="27" x="0" class="er attributeBoxOdd"/><text style="dominant-baseline: middle; font-size: 10.2px;" transform="translate(5,39)" y="0" x="0" id="text-entity-habitweekdays-f4b53567-586f-492e-bfdf-ee5d0b0d4165-attr-1-type" class="er entityLabel">String</text><rect height="24" width="60.666666666666664" y="27" x="41.666666666666664" class="er attributeBoxOdd"/><text style="dominant-baseline: middle; font-size: 10.2px;" transform="translate(46.666666666666664,39)" y="0" x="0" id="text-entity-habitweekdays-f4b53567-586f-492e-bfdf-ee5d0b0d4165-attr-1-name" class="er entityLabel">id</text><rect height="24" width="23.666666666666668" y="27" x="102.33333333333333" class="er attributeBoxOdd"/><text style="dominant-baseline: middle; font-size: 10.2px;" transform="translate(107.33333333333333,39)" y="0" x="0" id="text-entity-habitweekdays-f4b53567-586f-492e-bfdf-ee5d0b0d4165-attr-1-key" class="er entityLabel">PK</text><rect height="24" width="41.666666666666664" y="51" x="0" class="er attributeBoxEven"/><text style="dominant-baseline: middle; font-size: 10.2px;" transform="translate(5,63)" y="0" x="0" id="text-entity-habitweekdays-f4b53567-586f-492e-bfdf-ee5d0b0d4165-attr-2-type" class="er entityLabel">Int</text><rect height="24" width="60.666666666666664" y="51" x="41.666666666666664" class="er attributeBoxEven"/><text style="dominant-baseline: middle; font-size: 10.2px;" transform="translate(46.666666666666664,63)" y="0" x="0" id="text-entity-habitweekdays-f4b53567-586f-492e-bfdf-ee5d0b0d4165-attr-2-name" class="er entityLabel">week_day</text><rect height="24" width="23.666666666666668" y="51" x="102.33333333333333" class="er attributeBoxEven"/><text style="dominant-baseline: middle; font-size: 10.2px;" transform="translate(107.33333333333333,63)" y="0" x="0" id="text-entity-habitweekdays-f4b53567-586f-492e-bfdf-ee5d0b0d4165-attr-2-key" class="er entityLabel"/></g><g transform="translate(347,207 )" id="entity-days-0f495702-da6d-489a-812d-95be01c5b489"><rect height="75" width="113" y="0" x="0" class="er entityBox"/><text style="dominant-baseline: middle; text-anchor: middle; font-size: 12px;" transform="translate(56.5,13.5)" y="0" x="0" id="text-entity-days-0f495702-da6d-489a-812d-95be01c5b489" class="er entityLabel">days</text><rect height="24" width="57" y="27" x="0" class="er attributeBoxOdd"/><text style="dominant-baseline: middle; font-size: 10.2px;" transform="translate(5,39)" y="0" x="0" id="text-entity-days-0f495702-da6d-489a-812d-95be01c5b489-attr-1-type" class="er entityLabel">String</text><rect height="24" width="33" y="27" x="57" class="er attributeBoxOdd"/><text style="dominant-baseline: middle; font-size: 10.2px;" transform="translate(62,39)" y="0" x="0" id="text-entity-days-0f495702-da6d-489a-812d-95be01c5b489-attr-1-name" class="er entityLabel">id</text><rect height="24" width="23" y="27" x="90" class="er attributeBoxOdd"/><text style="dominant-baseline: middle; font-size: 10.2px;" transform="translate(95,39)" y="0" x="0" id="text-entity-days-0f495702-da6d-489a-812d-95be01c5b489-attr-1-key" class="er entityLabel">PK</text><rect height="24" width="57" y="51" x="0" class="er attributeBoxEven"/><text style="dominant-baseline: middle; font-size: 10.2px;" transform="translate(5,63)" y="0" x="0" id="text-entity-days-0f495702-da6d-489a-812d-95be01c5b489-attr-2-type" class="er entityLabel">DateTime</text><rect height="24" width="33" y="51" x="57" class="er attributeBoxEven"/><text style="dominant-baseline: middle; font-size: 10.2px;" transform="translate(62,63)" y="0" x="0" id="text-entity-days-0f495702-da6d-489a-812d-95be01c5b489-attr-2-name" class="er entityLabel">date</text><rect height="24" width="23" y="51" x="90" class="er attributeBoxEven"/><text style="dominant-baseline: middle; font-size: 10.2px;" transform="translate(95,63)" y="0" x="0" id="text-entity-days-0f495702-da6d-489a-812d-95be01c5b489-attr-2-key" class="er entityLabel"/></g><g transform="translate(303.5,32 )" id="entity-dayshabits-2a54179d-e5da-46cd-9019-2b935f24498f"><rect height="51" width="100" y="0" x="0" class="er entityBox"/><text style="dominant-baseline: middle; text-anchor: middle; font-size: 12px;" transform="translate(50,13.5)" y="0" x="0" id="text-entity-dayshabits-2a54179d-e5da-46cd-9019-2b935f24498f" class="er entityLabel">days_habits</text><rect height="24" width="46.333333333333336" y="27" x="0" class="er attributeBoxOdd"/><text style="dominant-baseline: middle; font-size: 10.2px;" transform="translate(5,39)" y="0" x="0" id="text-entity-dayshabits-2a54179d-e5da-46cd-9019-2b935f24498f-attr-1-type" class="er entityLabel">String</text><rect height="24" width="25.333333333333332" y="27" x="46.333333333333336" class="er attributeBoxOdd"/><text style="dominant-baseline: middle; font-size: 10.2px;" transform="translate(51.333333333333336,39)" y="0" x="0" id="text-entity-dayshabits-2a54179d-e5da-46cd-9019-2b935f24498f-attr-1-name" class="er entityLabel">id</text><rect height="24" width="28.333333333333332" y="27" x="71.66666666666667" class="er attributeBoxOdd"/><text style="dominant-baseline: middle; font-size: 10.2px;" transform="translate(76.66666666666667,39)" y="0" x="0" id="text-entity-dayshabits-2a54179d-e5da-46cd-9019-2b935f24498f-attr-1-key" class="er entityLabel">PK</text></g><rect height="17" width="29" y="138.43724060058594" x="73.19287872314453" class="er relationshipLabelBox"/><text style="text-anchor: middle; dominant-baseline: middle; font-size: 12px;" y="146.93724060058594" x="87.69287872314453" id="rel1" class="er relationshipLabel">habit</text><rect height="17" width="22" y="133.46542358398438" x="385.6866149902344" class="er relationshipLabelBox"/><text style="text-anchor: middle; dominant-baseline: middle; font-size: 12px;" y="141.96542358398438" x="396.6866149902344" id="rel2" class="er relationshipLabel">day</text><rect height="17" width="29" y="128.42991638183594" x="236.8932342529297" class="er relationshipLabelBox"/><text style="text-anchor: middle; dominant-baseline: middle; font-size: 12px;" y="136.92991638183594" x="251.3932342529297" id="rel3" class="er relationshipLabel">habit</text></svg>